<svg xmlns="http://www.w3.org/2000/svg" viewBox="0 0 100 80" fill="none" stroke="#6f3823">
    <path d="M62.4 72.2V54.2L65.1 70.2C65.1 70.2 66 74.9 70.1 74.1C74.2 73.3 73.2 68.9 73.2 68.9L67.6 38.8C66.8 36.3 64.5 34.6 61.9 34.6H59.6C46.7 34.6 40.5 28 40.5 22.4C40.5 17.2 45.1 13 50.4 13.7C54.8 14.3 58 17.9 58 22.4C58 29.2 50.2 34.6 39 34.6H37C34.2 34.6 31.8 36.5 31.1 39.2L26.5 69.5C26.2 71.7 27.9 73.7 30.1 74.1H29.9C32.1 74.4 34.5 72.9 34.9 70.7L37.4 54.1V72.1C37.4 72.1 41.6 76.3 49.7 76.3C57.8 76.3 62.4 72.2 62.4 72.2Z" stroke-width="2" stroke-miterlimit="10" stroke-linecap="round" stroke-linejoin="round" />
    <path d="M42.9 35.1C42.9 35.1 42.5 42.4 49.3 42.4C56.1 42.4 56.2 35.1 56.2 35.1" stroke-width="2" stroke-miterlimit="10" stroke-linecap="round" stroke-linejoin="round" />
    <path d="M40.9 19.5C40.9 19.5 45.9 19.9 49.1 16.7C52.1 19.7 56.5 19.6 56.5 19.6" stroke-width="2" stroke-miterlimit="10" stroke-linecap="round" stroke-linejoin="round" />
    <path d="M49.2 64C44.9 63.7 42.5 61.9 42 59.5C41.9 59 42.2 58.6 42.7 58.6H46.7C47 58.6 47.3 58.8 47.4 59.1C47.7 59.9 48.5 60.3 49.5 60.3C50.3 60.3 51.2 59.8 51.2 59C51.2 58.2 50.8 57.8 49.8 57.4L46.5 56.6C43.8 55.9 42.3 54.3 42.3 51.7C42.3 48.6 45.1 46.5 49.4 46.5L50.8 46.6C54.4 46.9 56.6 48.5 56.9 51.2C56.9 51.5 56.7 51.7 56.4 51.7H51.8C51.6 51.7 51.4 51.6 51.3 51.3C51.1 50.4 50.4 50 49.4 50.1C48.7 50.2 48.1 50.6 48.1 51.4C48.1 52.1 48.5 52.6 49.6 52.9L52.8 53.8C55.4 54.5 57 56.1 57 58.6C57 61.7 54.5 63.9 50.6 64.1H49.2V64Z" stroke-width="2" stroke-miterlimit="10" stroke-linecap="round" />
    <path d="M29.9 46.3L20.9 42.3L25.8 33L20.7 23.8L30.1 19.2L31.3 8.79999L41.7 10.6L48.8 2.79999L56.1 10.4L66.4 8.29999L67.9 18.7L77.5 23.1L72.5 32.4L77.7 41.5L68.9 46" stroke-width="2" stroke-miterlimit="10" stroke-linecap="round" stroke-linejoin="round" />
</svg>