<svg xmlns="http://www.w3.org/2000/svg" viewBox="0 0 100 80" fill="none" stroke="#6f3823">
    <path d="M50.4 73.2L52.2 66.7C53 64.2 55.3 62.6 57.9 62.6C69.1 62.6 76.9 57.8 76.9 50.4C76.9 45.1 72.2 40.9 66.7 41.7C62.4 42.4 59.2 46.2 59.3 50.5C59.4 57.4 67.3 62.5 78.4 62.5H81.6C84.3 62.5 86.7 64.3 87.4 67L88.8 73.2" stroke-width="2" stroke-miterlimit="10" stroke-linecap="round" stroke-linejoin="round" />
    <path d="M11.2 72L12.1 67.2C12.7 64.5 15.2 62.6 18 62.6H20C31.2 62.6 39 57.3 39 50.4C39 45.9 35.8 42.3 31.4 41.7C26 41 21.5 45.2 21.5 50.4C21.5 55.9 27.7 62.6 40.6 62.6H42.9C45.5 62.6 47.8 64.3 48.6 66.8L50.4 73.2" stroke-width="2" stroke-miterlimit="10" stroke-linecap="round" stroke-linejoin="round" />
    <path d="M39.7 53.4C50.2 53.4 57.5 48.4 57.5 42C57.5 37.8 54.5 34.4 50.4 33.9C45.4 33.2 41.1 37.1 41.1 42C41.1 47.2 46.9 53.4 58.9 53.4" stroke-width="2" stroke-miterlimit="10" stroke-linecap="round" stroke-linejoin="round" />
    <path d="M26.1 43.8C26.1 43.8 30.1 52.3 39.2 52.1" stroke-width="2" stroke-miterlimit="10" stroke-linecap="round" stroke-linejoin="round" />
    <path d="M60.5 48.3C60.5 48.3 65.5 48.7 68.7 45.5C71.7 48.5 76.1 48.4 76.1 48.4" stroke-width="2" stroke-miterlimit="10" stroke-linecap="round" stroke-linejoin="round" />
    <path d="M22.4 51.1C22.4 51.1 27.2 50.1 28 46.9" stroke-width="2" stroke-miterlimit="10" stroke-linecap="round" stroke-linejoin="round" />
    <path d="M55 36.2C55 36.2 51.8 38.6 47.6 39.9C43.4 41.2 41.5 41.1 41.5 41.1" stroke-width="2" stroke-miterlimit="10" stroke-linecap="round" stroke-linejoin="round" />
    <path d="M27.2 42.2C27.2 30.1 37 20.3 49.1 20.3C61.2 20.3 71 30.1 71 42.2" stroke-width="2" stroke-miterlimit="10" stroke-linecap="round" stroke-linejoin="round" />
    <path d="M49 6.29999V13" stroke-width="2" stroke-miterlimit="10" stroke-linecap="round" stroke-linejoin="round" />
    <path d="M73.1 13.9L68.3 18.6" stroke-width="2" stroke-miterlimit="10" stroke-linecap="round" stroke-linejoin="round" />
    <path d="M25.2 13.9L29.9 18.6" stroke-width="2" stroke-miterlimit="10" stroke-linecap="round" stroke-linejoin="round" />
    <path d="M13.8 35.2H20.5" stroke-width="2" stroke-miterlimit="10" stroke-linecap="round" stroke-linejoin="round" />
    <path d="M77.8 35.2H84.6" stroke-width="2" stroke-miterlimit="10" stroke-linecap="round" stroke-linejoin="round" />
</svg>